<svg xmlns="http://www.w3.org/2000/svg" viewBox="0 0 1270 670.14"><title>Asset 5</title><g id="Layer_2" data-name="Layer 2"><g id="izquierda"><path d="M180.61,130.23c-9.51,1.9-10.46,3.8-19,3.8s-28.51-4.75-32.31-10.46c0,0-11.41-.95-19-9.5S96,103.61,95.06,96s24.71,19,24.71,19l5.7,3.8s-12.35-15.21-19-20.91S83.65,86.5,83.65,86.5l-1-1s0-2.85,12.36-1.9h3.8L96,82.7l-1-1v1H80.8S78.9,78,83.65,78h1.9v1H94.1s3.81-1,4.76,0,5.7.95,5.7.95v1h3.8v1h1.9v1h1.91l-1.91,6.65s2.86-5.7,4.76-4.75,4.75,4.75,1.9,7.6l-2.85,1L112.17,96l1.9.95,1,1.9s2.85-5.71,4.75-3.8,1.9,5.7,3.8,7.6,0,7.6,0,7.6,2.85-4.75,4.75-4.75,9.51,4.75,9.51,4.75l-3.8-5.7,1.9-1-8.56-1.9v-.95l4.76-1a45,45,0,0,0-9.51-5.71c-4.75-1.9-2.85-6.65-1-6.65s18.06,16.16,27.57,14.26c0,0-4.76-1.9-5.71-4.75s2.86-4.76,2.86-4.76l-3.81,1.9s-1.9-1.9,1.9-7.6l-5.7,3.8s-1.9,2.85-2.85-1.9l-1-4.75-.95,5.7s-1.9,1.9-4.75,0-3.81-3.8-3.81-5.7,2.85-3.8,0-8.56h-1v6.66s0,1.9-5.7,1S105.51,78,106.46,75.09l1.9-1s-1-2.85,0-3.8a37.68,37.68,0,0,1,3.81-2.85l-3.81-.95,2.85-5.7-2.85.95a4.12,4.12,0,0,1-1.9-3.81l1-2.85-3.8.95,1-6.65-4.75,1.9-1-7.6-5.71,2.85V41.82l-3.8,1.91s-1.9-1-.95-4.76l1.9-3.8-7.6,4.75v-7.6L78,37.07H77v-7.6l-6.65,6.65-3.8,1,1.9-13.31-5.7,11.41-2.86,1.9L58,25.66l-3.8,9.51-2.85.95-2.85-1.9,2.85-10.46s-3.8,5.71-9.51,5.71L38,28.52l1.9-2.86-6.65,1s-5.7-1-3.8-2.86l4.75-2.85-8.56.95s-3.8-1.9,0-2.85l5.71-2.85-10.46,1.9s-3.8,1-2.85-.95l4.75-2.85-6.65,1.9s-3.8-1.9-2.85-2.85l1.9-2.85s-1.9,1.9-8.56,3.8L0,16.16v654H39.92a48.57,48.57,0,0,1-2.85-20q1.43-15.69,2.85-20c.95-2.85,10.46-16.16,10.46-16.16S58,605.5,58,599.8,57,585.54,61.79,577a160.22,160.22,0,0,1,10.45-16.16s3.8-7.61,3.8-11.41S81.75,538,81.75,538A25.91,25.91,0,0,0,88.4,520.9c0-10.45-2.85-12.35-2.85-12.35v-4.76l-4.75-6.65s0-1.9,2.85-1.9,3.8.95,6.65.95S97,493.34,97,493.34a33.77,33.77,0,0,1-5.71,1c-1.9,0-8.55-2.85-9.5-2.85h-1.9s0-21.87,7.6-21.87,7.61,7.61,7.61,7.61,3.8-10.46-7.61-11.41c0,0-6.65,0-8.55,12.36L77,489.54s-3.8,1.9-3.8-1.91l-1-5.7,1-3.8s1-.95,0-5.7a43.19,43.19,0,0,1-1-7.61,43.2,43.2,0,0,1-.95,5.7,33.77,33.77,0,0,0-1,5.71c0,1.9,1,3.8,1,4.75s-1.9,5.7-1.9,6.65-1.9,4.76-3.8,2.86A21.72,21.72,0,0,1,59.88,480c-1-4.75-7.6-6.65-8.55-11.41s-11.41-13.3-11.41-21.86c0,0,0-6.65-1-8.55s-5.7-8.56-5.7-13.31V402.08a28.08,28.08,0,0,1-1.9-8.55c0-3.8,2.85-10.46,2.85-14.26s0-13.31,2.85-18.06,8.56-12.36,8.56-18.06,1.9-10.46,2.85-11.41,2.85-7.6,3.8-13.3S57,309.88,57,301.33s0-20,6.66-26.62,9.5-11.41,10.45-14.26S79.85,250,90.3,243.34s15.21-15.21,16.16-20,11.41-25.66,20.91-31.37l.95-.95s3.81-10.45,8.56-15.21,6.65-10.45,15.21-10.45,8.55,6.65,8.55,10.45-3.8,10.46-12.35,14.26-17.11,7.61-17.11,16.16,9.5,3.8,10.45-1l-.95-.95s-1.9,3.8-3.8,3.8-3.8-.95-2.85-3.8.95-5.7,13.31-12.36,14.25-8.55,15.2-18.06c0,0,1-4.75-2.85-7.6l-4.75-4.76s-2.85-1.9.95-5.7,12.36-14.26,20.91-20c0,0,5.71-3.8,10.46-3.8l4.75-1.9h2.85C195.81,130.23,190.11,128.32,180.61,130.23ZM40.87,61.79C38,56.08,24.71,49.43,24.71,49.43l-2.85-1.9c-5.7-2.85,1.9-2.85,1.9-2.85,9.51,1.9,11.41,4.75,14.26,6.65s9.51,10.46,9.51,15.21S43.73,67.49,40.87,61.79Zm9.51,6.65c-1-5.7-3.8-8.56-7.61-15.21s-19-11.41-20.91-11.41-4.75-1.9-4.75-1.9-5.7-7.6-6.65-14.26,3.8,1,3.8,1L19,34.22v-7.6c1.9-1,4.75,6.65,4.75,6.65-1-4.75,1.9-3.8,1.9-3.8,1,0,3.81,4.75,3.81,4.75v-1.9c2.85,0,3.8,7.6,3.8,7.6.95-7.6,3.8-4.75,3.8-4.75l2.85,7.6c.95-6.65,1.9-4.75,1.9-4.75,1,0,3.81,9.51,3.81,9.51s-1-5.71,1.9-5.71,2.85,13.31,2.85,13.31l1.9-6.65.95,10.45,1.9-1.9L58,61.79V57l5.71,2.85-7.61-9.5h4.76L58,47.53l2.86.95L57,41.82l6.66,5.71s-1.9-7.61,1-7.61,4.75,8.56,4.75,8.56c0-5.71,1-6.66,1.9-6.66s3.8,9.51,3.8,9.51-1-9.51,1.9-9.51,2.86,13.31,2.86,13.31,0-8.55,2.85-8.55,2.85,8.55,2.85,8.55,1.9-4.75,2.85-5.7,1.9,2.85,1.9,2.85l1,4.75s1.9-3.8,2.85-3.8S96,58,96,58l1.9-1.9,1,1v2.85l1.9-1v4.76h2.85v3.8h2.85v1c0,2.85-2.85,3.8-6.65,3.8s-1.9-5.7-4.75-6.65S91.25,78,91.25,78l-7.6-1-1-.95C77,68.44,50.38,68.44,50.38,68.44ZM78.9,78C77,80.8,64.64,76,64.64,76s-2.85-1.9,0-2.85,6.65,1,7.6,1C72.24,74.14,80.8,75.09,78.9,78Z"/></g><g id="derecha"><path d="M1169.46,120.42c-.14.12-.22.22-.22.3ZM1266.2,15.21V1.9s-1.9,9.51-2.85,9.51-2.86,0-3.81-3.81S1254.79,1,1254.79,1a7.27,7.27,0,0,1,1.9,4.75c0,2.85-2.85,0-3.8-1S1243.38,0,1243.38,0s6.66,3.8,9.51,7.6,3.8,7.61.95,7.61-11.41-5.7-18.06-9.51S1213,0,1213,0s-13.31,4.75-20,4.75-19,10.46-19,10.46l-19,10.45c5.71,1,15.21-5.7,16.16-6.65s2.85-1,2.85.95-3.8,7.61-3.8,7.61c1.9-.95,3.8-1.91,6.66-6.66s4.75-4.75,4.75-1.9-1.9,9.51-1.9,9.51l3.8-2.86a13.55,13.55,0,0,1-1.9,3.81c-.95,1-1.9,4.75-1.9,4.75-3.8,4.75-13.31,10.46-17.11,10.46a5.49,5.49,0,0,1-5.71-5.71c0-2.85.95-.95.95-2.85s-2.85,1-2.85,1-1.9,9.51,7.61,9.51,16.16-9.51,20-12.36,4.75-15.21,4.75-18.06,3.8-.95,3.8.95,1.91,5.7,1.91,5.7a47.48,47.48,0,0,1,1-10.45c3.8-8.56,5.7-2.85,5.7-2.85v6.65l2.85-7.61c2.85-3.8,5.7-1.9,5.7-1.9l-1.61,5.64a14.67,14.67,0,0,1,3.52-3.74c1.9-1,1.9,0,1.9,0-1,1.91-1,6.66-1,6.66a56.26,56.26,0,0,1,3.8-5.7c2.85-1.91,1.9,1.9,1.9,1.9v2.85l1.9-2.85c0-.95,2.85-1.9,2.85-1.9v3.8l2.85-2.85v4.75l2.86-3.8c3.8-3.81,5.7,0,5.7,0V19l4.75-6.65-1,6.65,5.7-4.75-1.9,4.75,4.76-2.85-1,3.8h1.9l1,.95c1,.95-7.61,4.75-12.36,1.9S1222.47,20,1222.47,20s10.46,2.85,9.51,5.7-6.66,0-8.56-.95-8.55-.95-8.55-.95l3.8,2.86h-8.55s3.8,3.8,3.8,4.75-9.51.95-9.51.95,4.75,1,4.75,1.9-1,1.9-2.85,1.9a53.57,53.57,0,0,0-6.65,1s4.75-1,4.75,1.9c0,2.26-4.14,2.14-5.89,2,3.42.67,5.89,5.62,5.89,5.62,0,2.85-4.75,1-4.75,1a43.74,43.74,0,0,0-12.36-1.9c-6.65,0-3.8,6.65-3.8,11.4a21.19,21.19,0,0,1-1.9,8.56,6.49,6.49,0,0,0-3.8,3.8c2.85-2.85,4.75-1,4.75-1v3.8c2.85-.95,3.8-11.4,3.8-15.21s1.9-8.55,6.66-8.55,6.65,1.9,6.65,2.85-4.75,1-4.75,1l3.8,2.85-5.7.95s4.75,1.9,4.75,3.8-5.71,1-5.71,1,4.76,1.9,4.76,2.85-3.8,3.8-3.8,3.8h2.85v1.9c-.95,1-3.81,0-3.81,0l1,1s1.9,1.9,1.9,2.85-4.76,1-4.76,1l.95,1.9c0,.95-6.65.95-6.65.95,8.56,3.81,12.36,1,12.36,1,0-1,1.9-2.86,1.9-2.86,3.8,0,2.85,4.76,2.85,4.76,1-1.9,0-8.56,0-8.56h2.85l-1.9-5.7,2.85,1-1.9-3.8,3.8,1.9-2.85-4.76V58l4.75,2.86-1-1s-2.85-4.75-1.9-6.65,5.71,1.9,5.71,1.9l-1.9-3.8c0-1.9,1.9-.95,1.9-.95l4.75,3.8-1-7.6,2.85,7.6c1.9-7.6,1.9-9.5,2.85-9.5s1,3.8,1,3.8a12.05,12.05,0,0,0,1.9-5.71c0-2.85,1-3.8,1-3.8,3.81,0,2.86,11.41,2.86,11.41,2.85-4.75-1-17.11,1.9-17.11s3.8,7.6,3.8,7.6c.95-3.8.95-11.4.95-11.4,3.8-.95,2.85,12.35,2.85,12.35a15.66,15.66,0,0,0,0-12.35l1-3.81a4.38,4.38,0,0,1,6.66,3.81c0,2.85-3.81,15.21-6.66,19a39.63,39.63,0,0,0-4.75,9.5s-1.9,12.36-4.75,15.21a8.83,8.83,0,0,0-2.86,5.71s2.86,14.25-1,18.06-3.8-1.9-5.7-5.71-5.7-3.8-8.55-2.85-1,8.56,1,9.51,1.9,3.8,1.9,3.8,1.9-2.85,3.8-.95-1,9.5-1,9.5-2.85,4.76-4.75-3.8S1199.66,89.35,1194,89.35s-6.66,1.9-6.66,1.9l-2.85-1.9c-1.9-.95-8.55-.95-8.55-.95-8.56-1-14.26,5.7-14.26,9.51s2.85,7.6,2.85,7.6l-1.9.95h-6.66s-23.76,3.8-24.71,18.06,12.36,11.41,14.26,9.51,1-6.66,1-6.66c-1.9,6.66-5.71,6.66-5.71,6.66s-5.7,0-6.65-5.71,1-5.7,1-5.7a10.39,10.39,0,0,0,3.56,4.58c-.86-1.09-1.66-7.43-1.66-7.43,0-1.9,4.76-5.7,4.76-1.9s1.9,4.75,1.9,4.75l3.8-7.6c1.9-2.85,3.8-1,3.8-1l-1,6.65,1-1.9c1-2.85,4.75-4.75,4.75-4.75,0,1-1.9,9.5-1.9,9.5s4.76-7.6,6.66-9.5a3.35,3.35,0,0,1,3.8-.95c-4.75,4.75-4.75,9.5-4.75,9.5l1-1c2.85-3.8,11.4-9.5,14.25-10.46s2.86,1,1,1.91c-1.66.82-5.49,6-6.44,7.3,1.56-1.39,11.19-5.4,11.19-5.4,3.8-1,2.85,1,2.85,1l-6.65,4.75,10.45-2.85c2.85-1,2.85,0,2.85,0-1,1.9-6.65,4.75-6.65,4.75l5.7-1c1.9,0,4.76-1.9,4.76-1.9v1a29.51,29.51,0,0,1-4.76,6.65c-2.85,2.86-15.21,8.56-20,14.26s-3.8,20.91-3.8,20.91l1-4.75c.95-5.7,1.9-4.75,2.85-7.6s2.85-7.61,2.85-7.61l2.85-2.85c1-1.9,9.51-6.65,11.41-6.65s9.51-8.56,9.51-5.71-4.76,6.66-11.41,10.46-12.36,11.41-11.41,10.46,5.71-4.76,5.71-4.76c7.6-3.8,14.26-7.6,17.11-10.45s2.85-3.8,2.85-3.8c2.85,0,4.75,8.55,4.75,8.55,0,4.75,5.7,22.81,5.7,22.81-1,12.36,1,14.26,1,14.26,1.9,3.8,3.8,7.61,3.8,10.46s4.75,17.11,4.75,17.11l3.8,8.55a37.22,37.22,0,0,0,1.9,19c3.81,9.51,3.81,12.36,3.81,12.36,1,10.46,0,23.77-4.76,35.17s-4.75,31.37-3.8,45.63,15.21,21.86,20,26.61,8.56,13.31,12.36,20,4.75,22.81,4.75,25.66,2.85,11.41,2.85,11.41c1,14.26-1.9,20.91-1.9,20.91-6.65,8.55-9.5,20.91-11.4,24.71a29.67,29.67,0,0,1-8.56,10.46c-3.8,2.85-2.85-10.46-2.85-10.46,0-5.7-4.75-12.35-4.75-12.35l1,5.7c1,1.9,1,12.36,1,16.16s-1.9,2.85-1.9,2.85v-.95c0-1.9-4.76-9.51-4.76-9.51s-2.85-9.5-2.85-16.15-1.9-10.46-1.9-10.46V442c0,8.55,3.8,18.06,3.8,20.91a63.2,63.2,0,0,0,1,12.36c1,4.75-1,2.85-1,2.85-2.85,0-5.7-6.66-6.65-8.56s-6.65-6.65-6.65-6.65c1,2.85,1,7.6,4.75,10.46s7.6,13.3,7.6,13.3c2.85,5.71-1,12.36-1,12.36-1.9,6.65-7.6,13.31-9.5,20s-4.76,10.46-5.71,13.31-1,9.51-1,11.41,3.81,2.85,3.81,9.5,5.7,12.36,6.65,17.11-9.51,4.75-9.51,4.75c-11.4,1-24.71,14.26-27.56,16.16s-6.66,1-6.66,1c-1.9-2.85,0-14.25,0-14.25l-3.8,15.21c-1,3.8-1.9,6.65-1.9,6.65l-.95-.95v-1c0-3.8.95-16.16.95-16.16-1.9,4.75-3.8,20.91-3.8,20.91l-1-5.7s-1.9,10.45-.95,17.11-1.9,3.8-1.9,3.8l-4.76-9.51,1.9,7.61c3.81,8.55,1.91,9.5,1.91,9.5-2.86.95-8.56-11.4-8.56-11.4v14.26s.1,2.89-.43,3.82c-.43.77,1.32.42.91,3.31-1,6.65-7.61,11.4-18.06,19s-9.51,8.55-9.51,8.55l.47,7.13H1270v-653C1266.2,19,1266.2,15.21,1266.2,15.21ZM1213,94.1h-1l-1-.95v-1l1.9,1Zm4.75,4.76-1.9-2.85-1-1V93.15l-.95-1V90.3h1.9l1.9,3.8Zm-19,16.16c-2.85-2.85-9.51-5.71-9.51-5.71l-1.9-1c-4.75,0-12.36-1-12.36-1l-2.85-1.9c1.9-1.9,2.85-5.7,2.85-5.7-8.55,8.55-10.45,1-10.45-1s4.75-8.56,11.41-8.56,7.6,4.76,7.6,4.76c1.9,10.45,8.55,11.4,12.36,9.5s5.7,1,5.7,1l8.56,11.41C1212,120.72,1201.56,117.87,1198.71,115Zm13.31-1-1.9-.95-5.71-7.61-5.7-5.7-1-1.9v1l-1.9-1L1193,95.06c-1.91-4.76,5.7-1,5.7-1,3.8,1,8.55,6.66,8.55,6.66,1.9.95,3.81,7.6,3.81,7.6a7.28,7.28,0,0,1,1.9,4.76C1213,116,1212,114.07,1212,114.07Zm-73.2,13.3-.24-.17C1138.66,127.3,1138.74,127.37,1138.82,127.37ZM1198.52,41a3.85,3.85,0,0,0-.76-.09S1198.06,40.92,1198.52,41Zm8.08-28.67a2.44,2.44,0,0,0-.29,1Z"/></g></g></svg>